<svg width="64" height="45" viewBox="0 0 64 45" fill="none" xmlns="http://www.w3.org/2000/svg">
<path fill-rule="evenodd" clip-rule="evenodd" d="M38.0586 4.70802C37.6561 3.89183 36.8016 3.39846 35.8935 3.45798C35.7708 3.46603 35.631 3.49231 35.3825 3.55395L34.9366 7.29311L38.0546 6.45764C38.1717 6.42626 38.2414 6.40748 38.2934 6.39161C38.3263 6.38157 38.3403 6.37616 38.3437 6.37479C38.4327 6.33001 38.4867 6.23658 38.4809 6.13708C38.4804 6.13346 38.4781 6.11864 38.4704 6.08511C38.4581 6.03213 38.4395 5.96239 38.4081 5.84527C38.2184 5.13731 38.1484 4.89007 38.0586 4.70802ZM33.3761 7.71124L33.8225 3.96816L29.1045 5.23234L28.6581 8.97542L33.3761 7.71124ZM27.0976 9.39357L27.544 5.65051C26.7269 5.86976 26.1428 6.03001 25.6933 6.19522C25.2198 6.3692 24.9659 6.5249 24.7904 6.70037C24.5112 6.97964 24.3103 7.32751 24.2081 7.70901C24.1439 7.9487 24.136 8.24646 24.222 8.74343C24.2846 9.10483 24.3891 9.53305 24.5328 10.0808L27.0976 9.39357ZM23.2498 11.0929C23.024 10.2501 22.8422 9.56656 22.744 8.9993C22.6402 8.39939 22.6154 7.85754 22.7592 7.32079C22.9296 6.68495 23.2643 6.10517 23.7298 5.63971C24.1227 5.24677 24.6044 4.99731 25.1758 4.78729C25.7303 4.58353 26.4347 4.39479 27.3081 4.16076L28.0889 3.95156C28.1764 3.90813 28.273 3.88143 28.3742 3.87512L34.3457 2.27506C34.3529 2.27311 34.3602 2.27117 34.3674 2.26923C34.455 2.22574 34.5518 2.19903 34.6531 2.19276C35.1271 2.06677 35.474 1.98226 35.7954 1.9612C37.3089 1.862 38.7331 2.68427 39.404 4.04458C39.5679 4.37708 39.676 4.78084 39.8346 5.37321C39.8419 5.40074 39.8494 5.42868 39.857 5.45704C39.8611 5.47246 39.8653 5.48795 39.8695 5.50349C39.9169 5.67914 39.9661 5.86192 39.9776 6.037C40.0239 6.74329 39.6402 7.40793 39.0054 7.72098C38.848 7.79858 38.6651 7.8473 38.4893 7.89412C38.4737 7.89827 38.4582 7.9024 38.4428 7.90653L29.6971 10.2499H36.0518C36.9503 10.2499 37.6995 10.2499 38.2943 10.3299C38.9221 10.4143 39.4889 10.5999 39.9444 11.0554C40.3998 11.5109 40.5855 12.0777 40.6699 12.7055C40.7499 13.3002 40.7498 14.0495 40.7498 14.9479V16.0548C40.7498 17.4224 40.7499 18.5247 40.6333 19.3917C40.5123 20.2918 40.2534 21.0497 39.6515 21.6516C39.0496 22.2535 38.2917 22.5124 37.3916 22.6334C36.5246 22.75 35.4223 22.75 34.0547 22.7499H29.945C28.5774 22.75 27.475 22.75 26.6081 22.6334C25.708 22.5124 24.9501 22.2535 24.3482 21.6516C23.7463 21.0497 23.4874 20.2918 23.3663 19.3917C23.2498 18.5247 23.2498 17.4224 23.2498 16.0548V11.0929ZM24.7498 11.7499V15.9999C24.7498 17.4354 24.7514 18.4365 24.853 19.1918C24.9516 19.9256 25.1321 20.3142 25.4088 20.5909C25.6856 20.8677 26.0742 21.0481 26.8079 21.1468C27.5633 21.2483 28.5644 21.2499 29.9998 21.2499H33.9998C35.4352 21.2499 36.4363 21.2483 37.1917 21.1468C37.9255 21.0481 38.314 20.8677 38.5908 20.5909C38.8676 20.3142 39.048 19.9256 39.1467 19.1918C39.2482 18.4365 39.2498 17.4354 39.2498 15.9999V14.9999C39.2498 14.0359 39.2482 13.3884 39.1833 12.9053C39.1212 12.4439 39.014 12.2464 38.8837 12.1161C38.7534 11.9857 38.5559 11.8785 38.0944 11.8165C37.6114 11.7515 36.9638 11.7499 35.9998 11.7499H24.7498ZM33.1984 14.5803C33.214 14.5915 33.2296 14.6027 33.2452 14.6139C33.2592 14.6239 33.2732 14.6339 33.2871 14.6439C33.648 14.9026 33.9868 15.1454 34.2276 15.382C34.4977 15.6474 34.7498 16.0052 34.7498 16.4999C34.7498 16.9947 34.4977 17.3525 34.2276 17.6179C33.9868 17.8545 33.648 18.0973 33.2871 18.356L33.2452 18.386C33.2296 18.3972 33.214 18.4084 33.1984 18.4195C32.8366 18.6791 32.4917 18.9264 32.1966 19.072C31.8816 19.2274 31.3634 19.3932 30.8675 19.0432C30.4369 18.7393 30.3339 18.2483 30.2927 17.9047C30.2497 17.5467 30.2498 17.0794 30.2498 16.5465V16.4533C30.2498 15.9204 30.2497 15.4532 30.2927 15.0952C30.3339 14.7516 30.4369 14.2606 30.8675 13.9567C31.3634 13.6066 31.8816 13.7724 32.1966 13.9278C32.4917 14.0734 32.8366 14.3208 33.1984 14.5803ZM31.769 15.412C31.7507 15.6617 31.7498 16.0049 31.7498 16.4999C31.7498 16.995 31.7507 17.3382 31.769 17.5879C31.9176 17.4909 32.1098 17.3544 32.3712 17.1669C32.7891 16.8673 33.0291 16.6926 33.1762 16.548C33.1955 16.5291 33.2106 16.5131 33.2224 16.4999C33.2106 16.4867 33.1955 16.4708 33.1762 16.4519C33.0291 16.3073 32.7891 16.1326 32.3712 15.833C32.1098 15.6455 31.9176 15.5089 31.769 15.412Z" fill="#FFEB58"/>
<path d="M11.5886 33.2727H13.8642L16.2676 39.1364H16.3699L18.7733 33.2727H21.0488V42H19.2591V36.3196H19.1866L16.9281 41.9574H15.7093L13.4508 36.2983H13.3784V42H11.5886V33.2727ZM25.4924 42.1278C24.8304 42.1278 24.258 41.9872 23.775 41.706C23.2949 41.4219 22.9242 41.027 22.6628 40.5213C22.4015 40.0128 22.2708 39.4233 22.2708 38.7528C22.2708 38.0767 22.4015 37.4858 22.6628 36.9801C22.9242 36.4716 23.2949 36.0767 23.775 35.7955C24.258 35.5114 24.8304 35.3693 25.4924 35.3693C26.1543 35.3693 26.7253 35.5114 27.2054 35.7955C27.6884 36.0767 28.0605 36.4716 28.3219 36.9801C28.5833 37.4858 28.714 38.0767 28.714 38.7528C28.714 39.4233 28.5833 40.0128 28.3219 40.5213C28.0605 41.027 27.6884 41.4219 27.2054 41.706C26.7253 41.9872 26.1543 42.1278 25.4924 42.1278ZM25.5009 40.7216C25.802 40.7216 26.0534 40.6364 26.2551 40.4659C26.4569 40.2926 26.6088 40.0568 26.7111 39.7585C26.8162 39.4602 26.8688 39.1207 26.8688 38.7401C26.8688 38.3594 26.8162 38.0199 26.7111 37.7216C26.6088 37.4233 26.4569 37.1875 26.2551 37.0142C26.0534 36.8409 25.802 36.7543 25.5009 36.7543C25.1969 36.7543 24.9412 36.8409 24.7338 37.0142C24.5293 37.1875 24.3745 37.4233 24.2694 37.7216C24.1671 38.0199 24.1159 38.3594 24.1159 38.7401C24.1159 39.1207 24.1671 39.4602 24.2694 39.7585C24.3745 40.0568 24.5293 40.2926 24.7338 40.4659C24.9412 40.6364 25.1969 40.7216 25.5009 40.7216ZM35.7857 35.4545L33.4973 42H31.4519L29.1635 35.4545H31.0811L32.4405 40.1378H32.5087L33.8638 35.4545H35.7857ZM36.7147 42V35.4545H38.53V42H36.7147ZM37.6266 34.6108C37.3567 34.6108 37.1252 34.5213 36.932 34.3423C36.7417 34.1605 36.6465 33.9432 36.6465 33.6903C36.6465 33.4403 36.7417 33.2259 36.932 33.0469C37.1252 32.8651 37.3567 32.7741 37.6266 32.7741C37.8965 32.7741 38.1266 32.8651 38.3169 33.0469C38.5101 33.2259 38.6067 33.4403 38.6067 33.6903C38.6067 33.9432 38.5101 34.1605 38.3169 34.3423C38.1266 34.5213 37.8965 34.6108 37.6266 34.6108ZM42.9672 42.1278C42.2939 42.1278 41.7143 41.9915 41.2285 41.7188C40.7456 41.4432 40.3734 41.054 40.112 40.5511C39.8507 40.0455 39.72 39.4474 39.72 38.7571C39.72 38.0838 39.8507 37.4929 40.112 36.9844C40.3734 36.4759 40.7413 36.0795 41.2157 35.7955C41.693 35.5114 42.2527 35.3693 42.8947 35.3693C43.3265 35.3693 43.7285 35.4389 44.1007 35.5781C44.4757 35.7145 44.8024 35.9205 45.0808 36.196C45.362 36.4716 45.5808 36.8182 45.737 37.2358C45.8933 37.6506 45.9714 38.1364 45.9714 38.6932V39.1918H40.4444V38.0668H44.2626C44.2626 37.8054 44.2058 37.5739 44.0922 37.3722C43.9785 37.1705 43.8208 37.0128 43.6191 36.8991C43.4203 36.7827 43.1887 36.7244 42.9245 36.7244C42.649 36.7244 42.4047 36.7884 42.1916 36.9162C41.9814 37.0412 41.8166 37.2102 41.6973 37.4233C41.5779 37.6335 41.5169 37.8679 41.514 38.1264V39.196C41.514 39.5199 41.5737 39.7997 41.693 40.0355C41.8152 40.2713 41.987 40.4531 42.2086 40.581C42.4302 40.7088 42.693 40.7727 42.997 40.7727C43.1987 40.7727 43.3833 40.7443 43.551 40.6875C43.7186 40.6307 43.862 40.5455 43.9814 40.4318C44.1007 40.3182 44.1916 40.179 44.2541 40.0142L45.9331 40.125C45.8478 40.5284 45.6731 40.8807 45.4089 41.1818C45.1475 41.4801 44.8095 41.7131 44.3947 41.8807C43.9828 42.0455 43.5069 42.1278 42.9672 42.1278ZM52.6021 37.321L50.9402 37.4233C50.9118 37.2812 50.8507 37.1534 50.7569 37.0398C50.6632 36.9233 50.5396 36.831 50.3862 36.7628C50.2356 36.6918 50.0552 36.6562 49.845 36.6562C49.5637 36.6562 49.3265 36.7159 49.1333 36.8352C48.9402 36.9517 48.8436 37.108 48.8436 37.304C48.8436 37.4602 48.9061 37.5923 49.0311 37.7003C49.1561 37.8082 49.3706 37.8949 49.6745 37.9602L50.8592 38.1989C51.4956 38.3295 51.97 38.5398 52.2825 38.8295C52.595 39.1193 52.7512 39.5 52.7512 39.9716C52.7512 40.4006 52.6248 40.777 52.372 41.1009C52.122 41.4247 51.7782 41.6776 51.3407 41.8594C50.9061 42.0384 50.4047 42.1278 49.8365 42.1278C48.97 42.1278 48.2797 41.9474 47.7654 41.5866C47.2541 41.223 46.9544 40.7287 46.8663 40.1037L48.6518 40.0099C48.7058 40.2741 48.8365 40.4759 49.0439 40.6151C49.2512 40.7514 49.5169 40.8196 49.8407 40.8196C50.1589 40.8196 50.4146 40.7585 50.6078 40.6364C50.8038 40.5114 50.9032 40.3509 50.9061 40.1548C50.9032 39.9901 50.8336 39.8551 50.6973 39.75C50.5609 39.642 50.3507 39.5597 50.0666 39.5028L48.9331 39.277C48.2939 39.1491 47.818 38.9276 47.5055 38.6122C47.1958 38.2969 47.041 37.8949 47.041 37.4062C47.041 36.9858 47.1547 36.6236 47.3819 36.3196C47.612 36.0156 47.9345 35.7812 48.3493 35.6165C48.7669 35.4517 49.2555 35.3693 49.8152 35.3693C50.6419 35.3693 51.2924 35.544 51.7669 35.8935C52.2441 36.2429 52.5225 36.7187 52.6021 37.321Z" fill="#FFEB58"/>
</svg>
