<svg width="64" height="45" viewBox="0 0 64 45" fill="none" xmlns="http://www.w3.org/2000/svg">
<path fill-rule="evenodd" clip-rule="evenodd" d="M38.0586 4.70802C37.6561 3.89183 36.8016 3.39846 35.8935 3.45798C35.7708 3.46603 35.631 3.49231 35.3825 3.55395L34.9366 7.29311L38.0546 6.45764C38.1717 6.42626 38.2414 6.40748 38.2934 6.39161C38.3263 6.38157 38.3403 6.37616 38.3437 6.37479C38.4327 6.33001 38.4867 6.23658 38.4809 6.13708C38.4804 6.13346 38.4781 6.11864 38.4704 6.08511C38.4581 6.03213 38.4395 5.96239 38.4081 5.84527C38.2184 5.13731 38.1484 4.89007 38.0586 4.70802ZM33.3761 7.71124L33.8225 3.96816L29.1045 5.23234L28.6581 8.97542L33.3761 7.71124ZM27.0976 9.39357L27.544 5.65051C26.7269 5.86976 26.1428 6.03001 25.6933 6.19522C25.2198 6.3692 24.9659 6.5249 24.7904 6.70037C24.5112 6.97964 24.3103 7.32751 24.2081 7.70901C24.1439 7.9487 24.136 8.24646 24.222 8.74343C24.2846 9.10483 24.3891 9.53305 24.5328 10.0808L27.0976 9.39357ZM23.2498 11.0929C23.024 10.2501 22.8422 9.56656 22.744 8.9993C22.6402 8.39939 22.6154 7.85754 22.7592 7.32079C22.9296 6.68495 23.2643 6.10517 23.7298 5.63971C24.1227 5.24677 24.6044 4.99731 25.1758 4.78729C25.7303 4.58353 26.4347 4.39479 27.3081 4.16076L28.0889 3.95156C28.1764 3.90813 28.273 3.88143 28.3742 3.87512L34.3457 2.27506C34.3529 2.27311 34.3602 2.27117 34.3674 2.26923C34.455 2.22574 34.5518 2.19903 34.6531 2.19276C35.1271 2.06677 35.474 1.98226 35.7954 1.9612C37.3089 1.862 38.7331 2.68427 39.404 4.04458C39.5679 4.37708 39.676 4.78084 39.8346 5.37321C39.8419 5.40074 39.8494 5.42868 39.857 5.45704C39.8611 5.47246 39.8653 5.48795 39.8695 5.50349C39.9169 5.67914 39.9661 5.86192 39.9776 6.037C40.0239 6.74329 39.6402 7.40793 39.0054 7.72098C38.848 7.79858 38.6651 7.8473 38.4893 7.89412C38.4737 7.89827 38.4582 7.9024 38.4428 7.90653L29.6971 10.2499H36.0518C36.9503 10.2499 37.6995 10.2499 38.2943 10.3299C38.9221 10.4143 39.4889 10.5999 39.9444 11.0554C40.3998 11.5109 40.5855 12.0777 40.6699 12.7055C40.7499 13.3002 40.7498 14.0495 40.7498 14.9479V16.0548C40.7498 17.4224 40.7499 18.5247 40.6333 19.3917C40.5123 20.2918 40.2534 21.0497 39.6515 21.6516C39.0496 22.2535 38.2917 22.5124 37.3916 22.6334C36.5246 22.75 35.4223 22.75 34.0547 22.7499H29.945C28.5774 22.75 27.475 22.75 26.6081 22.6334C25.708 22.5124 24.9501 22.2535 24.3482 21.6516C23.7463 21.0497 23.4874 20.2918 23.3663 19.3917C23.2498 18.5247 23.2498 17.4224 23.2498 16.0548V11.0929ZM24.7498 11.7499V15.9999C24.7498 17.4354 24.7514 18.4365 24.853 19.1918C24.9516 19.9256 25.1321 20.3142 25.4088 20.5909C25.6856 20.8677 26.0742 21.0481 26.8079 21.1468C27.5633 21.2483 28.5644 21.2499 29.9998 21.2499H33.9998C35.4352 21.2499 36.4363 21.2483 37.1917 21.1468C37.9255 21.0481 38.314 20.8677 38.5908 20.5909C38.8676 20.3142 39.048 19.9256 39.1467 19.1918C39.2482 18.4365 39.2498 17.4354 39.2498 15.9999V14.9999C39.2498 14.0359 39.2482 13.3884 39.1833 12.9053C39.1212 12.4439 39.014 12.2464 38.8837 12.1161C38.7534 11.9857 38.5559 11.8785 38.0944 11.8165C37.6114 11.7515 36.9638 11.7499 35.9998 11.7499H24.7498ZM33.1984 14.5803C33.214 14.5915 33.2296 14.6027 33.2452 14.6139C33.2592 14.6239 33.2732 14.6339 33.2871 14.6439C33.648 14.9026 33.9868 15.1454 34.2276 15.382C34.4977 15.6474 34.7498 16.0052 34.7498 16.4999C34.7498 16.9947 34.4977 17.3525 34.2276 17.6179C33.9868 17.8545 33.648 18.0973 33.2871 18.356L33.2452 18.386C33.2296 18.3972 33.214 18.4084 33.1984 18.4195C32.8366 18.6791 32.4917 18.9264 32.1966 19.072C31.8816 19.2274 31.3634 19.3932 30.8675 19.0432C30.4369 18.7393 30.3339 18.2483 30.2927 17.9047C30.2497 17.5467 30.2498 17.0794 30.2498 16.5465V16.4533C30.2498 15.9204 30.2497 15.4532 30.2927 15.0952C30.3339 14.7516 30.4369 14.2606 30.8675 13.9567C31.3634 13.6066 31.8816 13.7724 32.1966 13.9278C32.4917 14.0734 32.8366 14.3208 33.1984 14.5803ZM31.769 15.412C31.7507 15.6617 31.7498 16.0049 31.7498 16.4999C31.7498 16.995 31.7507 17.3382 31.769 17.5879C31.9176 17.4909 32.1098 17.3544 32.3712 17.1669C32.7891 16.8673 33.0291 16.6926 33.1762 16.548C33.1955 16.5291 33.2106 16.5131 33.2224 16.4999C33.2106 16.4867 33.1955 16.4708 33.1762 16.4519C33.0291 16.3073 32.7891 16.1326 32.3712 15.833C32.1098 15.6455 31.9176 15.5089 31.769 15.412Z" fill="#B0B0B0"/>
<path d="M12.8654 33.2727H14.1268L17.0927 40.517H17.195L20.1609 33.2727H21.4222V42H20.4336V35.3693H20.3484L17.6211 42H16.6665L13.9393 35.3693H13.854V42H12.8654V33.2727ZM26.0639 42.1364C25.473 42.1364 24.9545 41.9957 24.5085 41.7145C24.0653 41.4332 23.7188 41.0398 23.4688 40.5341C23.2216 40.0284 23.098 39.4375 23.098 38.7614C23.098 38.0795 23.2216 37.4844 23.4688 36.9759C23.7188 36.4673 24.0653 36.0724 24.5085 35.7912C24.9545 35.5099 25.473 35.3693 26.0639 35.3693C26.6548 35.3693 27.1719 35.5099 27.6151 35.7912C28.0611 36.0724 28.4077 36.4673 28.6548 36.9759C28.9048 37.4844 29.0298 38.0795 29.0298 38.7614C29.0298 39.4375 28.9048 40.0284 28.6548 40.5341C28.4077 41.0398 28.0611 41.4332 27.6151 41.7145C27.1719 41.9957 26.6548 42.1364 26.0639 42.1364ZM26.0639 41.233C26.5128 41.233 26.8821 41.1179 27.1719 40.8878C27.4616 40.6577 27.6761 40.3551 27.8153 39.9801C27.9545 39.6051 28.0241 39.1989 28.0241 38.7614C28.0241 38.3239 27.9545 37.9162 27.8153 37.5384C27.6761 37.1605 27.4616 36.8551 27.1719 36.6222C26.8821 36.3892 26.5128 36.2727 26.0639 36.2727C25.6151 36.2727 25.2457 36.3892 24.956 36.6222C24.6662 36.8551 24.4517 37.1605 24.3125 37.5384C24.1733 37.9162 24.1037 38.3239 24.1037 38.7614C24.1037 39.1989 24.1733 39.6051 24.3125 39.9801C24.4517 40.3551 24.6662 40.6577 24.956 40.8878C25.2457 41.1179 25.6151 41.233 26.0639 41.233ZM35.6829 35.4545L33.2624 42H32.2397L29.8192 35.4545H30.9102L32.717 40.6705H32.7852L34.592 35.4545H35.6829ZM37.0103 42V35.4545H38.016V42H37.0103ZM37.5217 34.3636C37.3256 34.3636 37.1566 34.2969 37.0146 34.1634C36.8754 34.0298 36.8058 33.8693 36.8058 33.6818C36.8058 33.4943 36.8754 33.3338 37.0146 33.2003C37.1566 33.0668 37.3256 33 37.5217 33C37.7177 33 37.8853 33.0668 38.0245 33.2003C38.1665 33.3338 38.2376 33.4943 38.2376 33.6818C38.2376 33.8693 38.1665 34.0298 38.0245 34.1634C37.8853 34.2969 37.7177 34.3636 37.5217 34.3636ZM42.6023 42.1364C41.9716 42.1364 41.4276 41.9972 40.9702 41.7188C40.5156 41.4375 40.1648 41.0455 39.9176 40.5426C39.6733 40.0369 39.5511 39.4489 39.5511 38.7784C39.5511 38.108 39.6733 37.517 39.9176 37.0057C40.1648 36.4915 40.5085 36.0909 40.9489 35.804C41.392 35.5142 41.9091 35.3693 42.5 35.3693C42.8409 35.3693 43.1776 35.4261 43.5099 35.5398C43.8423 35.6534 44.1449 35.8381 44.4176 36.0938C44.6903 36.3466 44.9077 36.6818 45.0696 37.0994C45.2315 37.517 45.3125 38.0312 45.3125 38.642V39.0682H40.267V38.1989H44.2898C44.2898 37.8295 44.2159 37.5 44.0682 37.2102C43.9233 36.9205 43.7159 36.6918 43.446 36.5241C43.179 36.3565 42.8636 36.2727 42.5 36.2727C42.0994 36.2727 41.7528 36.3722 41.4602 36.571C41.1705 36.767 40.9474 37.0227 40.7912 37.3381C40.6349 37.6534 40.5568 37.9915 40.5568 38.3523V38.9318C40.5568 39.4261 40.642 39.8452 40.8125 40.1889C40.9858 40.5298 41.2259 40.7898 41.5327 40.9688C41.8395 41.1449 42.196 41.233 42.6023 41.233C42.8665 41.233 43.1051 41.196 43.3182 41.1222C43.5341 41.0455 43.7202 40.9318 43.8764 40.7812C44.0327 40.6278 44.1534 40.4375 44.2386 40.2102L45.2102 40.483C45.108 40.8125 44.9361 41.1023 44.6946 41.3523C44.4531 41.5994 44.1548 41.7926 43.7997 41.9318C43.4446 42.0682 43.0455 42.1364 42.6023 42.1364ZM51.4787 36.9205L50.5753 37.1761C50.5185 37.0256 50.4347 36.8793 50.3239 36.7372C50.2159 36.5923 50.0682 36.473 49.8807 36.3793C49.6932 36.2855 49.4531 36.2386 49.1605 36.2386C48.7599 36.2386 48.4261 36.331 48.1591 36.5156C47.8949 36.6974 47.7628 36.929 47.7628 37.2102C47.7628 37.4602 47.8537 37.6577 48.0355 37.8026C48.2173 37.9474 48.5014 38.0682 48.8878 38.1648L49.8594 38.4034C50.4446 38.5455 50.8807 38.7628 51.1676 39.0554C51.4545 39.3452 51.598 39.7187 51.598 40.1761C51.598 40.5511 51.4901 40.8864 51.2741 41.1818C51.0611 41.4773 50.7628 41.7102 50.3793 41.8807C49.9957 42.0511 49.5497 42.1364 49.0412 42.1364C48.3736 42.1364 47.821 41.9915 47.3835 41.7017C46.946 41.4119 46.669 40.9886 46.5526 40.4318L47.5071 40.1932C47.598 40.5455 47.7699 40.8097 48.0227 40.9858C48.2784 41.1619 48.6122 41.25 49.0241 41.25C49.4929 41.25 49.8651 41.1506 50.1406 40.9517C50.419 40.75 50.5582 40.5085 50.5582 40.2273C50.5582 40 50.4787 39.8097 50.3196 39.6562C50.1605 39.5 49.9162 39.3835 49.5866 39.3068L48.4957 39.0511C47.8963 38.9091 47.456 38.6889 47.1747 38.3906C46.8963 38.0895 46.7571 37.7131 46.7571 37.2614C46.7571 36.892 46.8608 36.5653 47.0682 36.2812C47.2784 35.9972 47.5639 35.7741 47.9247 35.6122C48.2884 35.4503 48.7003 35.3693 49.1605 35.3693C49.8082 35.3693 50.3168 35.5114 50.6861 35.7955C51.0582 36.0795 51.3224 36.4545 51.4787 36.9205Z" fill="#B0B0B0"/>
</svg>
